<svg width="99" height="99" viewBox="0 0 99 99" fill="none" xmlns="http://www.w3.org/2000/svg">
<rect width="99" height="99" rx="49.5" fill="white"/>
<path d="M80 51.9375C80 53.9583 79.6979 55.75 79.0938 57.3125C78.4896 58.875 77.6562 60.2396 76.5938 61.4062C75.5521 62.5729 74.3229 63.5625 72.9062 64.375C71.4896 65.1875 69.9688 65.8542 68.3438 66.375C66.7396 66.875 65.0729 67.25 63.3438 67.5C61.6146 67.7292 59.9167 67.8542 58.25 67.875V82.4375H43.6875C43.6875 77.6667 43.6979 72.9167 43.7188 68.1875C43.7396 63.4583 43.7708 58.6875 43.8125 53.875C43.8542 51.3333 43.8646 48.7917 43.8438 46.25C43.8229 43.7083 43.875 41.1458 44 38.5625C46.6667 37.7708 49.3333 37.1771 52 36.7812C54.6667 36.3854 57.4167 36.1875 60.25 36.1875C61.8542 36.1875 63.4583 36.3229 65.0625 36.5938C66.6667 36.8438 68.1979 37.25 69.6562 37.8125C71.1354 38.375 72.5 39.0833 73.75 39.9375C75.0208 40.7708 76.1146 41.7708 77.0312 42.9375C77.9479 44.1042 78.6667 45.4375 79.1875 46.9375C79.7292 48.4167 80 50.0833 80 51.9375ZM66.125 53C66.125 51.6458 65.7083 50.5938 64.875 49.8438C64.0625 49.0729 63 48.6875 61.6875 48.6875C61.25 48.6875 60.7917 48.7292 60.3125 48.8125C59.8542 48.875 59.4167 48.9583 59 49.0625L58.625 58.1875C58.9167 58.2292 59.1979 58.25 59.4688 58.25C59.7396 58.25 60.0208 58.25 60.3125 58.25C61.0625 58.25 61.7812 58.125 62.4688 57.875C63.1771 57.625 63.8021 57.2708 64.3438 56.8125C64.8854 56.3333 65.3125 55.7812 65.625 55.1562C65.9583 54.5104 66.125 53.7917 66.125 53Z" fill="#5A87C5"/>
<path d="M63 35.9375C63 37.9583 62.6979 39.75 62.0938 41.3125C61.4896 42.875 60.6562 44.2396 59.5938 45.4062C58.5521 46.5729 57.3229 47.5625 55.9062 48.375C54.4896 49.1875 52.9688 49.8542 51.3438 50.375C49.7396 50.875 48.0729 51.25 46.3438 51.5C44.6146 51.7292 42.9167 51.8542 41.25 51.875V66.4375H26.6875C26.6875 61.6667 26.6979 56.9167 26.7188 52.1875C26.7396 47.4583 26.7708 42.6875 26.8125 37.875C26.8542 35.3333 26.8646 32.7917 26.8438 30.25C26.8229 27.7083 26.875 25.1458 27 22.5625C29.6667 21.7708 32.3333 21.1771 35 20.7812C37.6667 20.3854 40.4167 20.1875 43.25 20.1875C44.8542 20.1875 46.4583 20.3229 48.0625 20.5938C49.6667 20.8438 51.1979 21.25 52.6562 21.8125C54.1354 22.375 55.5 23.0833 56.75 23.9375C58.0208 24.7708 59.1146 25.7708 60.0312 26.9375C60.9479 28.1042 61.6667 29.4375 62.1875 30.9375C62.7292 32.4167 63 34.0833 63 35.9375ZM49.125 37C49.125 35.6458 48.7083 34.5938 47.875 33.8438C47.0625 33.0729 46 32.6875 44.6875 32.6875C44.25 32.6875 43.7917 32.7292 43.3125 32.8125C42.8542 32.875 42.4167 32.9583 42 33.0625L41.625 42.1875C41.9167 42.2292 42.1979 42.25 42.4688 42.25C42.7396 42.25 43.0208 42.25 43.3125 42.25C44.0625 42.25 44.7812 42.125 45.4688 41.875C46.1771 41.625 46.8021 41.2708 47.3438 40.8125C47.8854 40.3333 48.3125 39.7812 48.625 39.1562C48.9583 38.5104 49.125 37.7917 49.125 37Z" fill="#EEBFBF"/>
</svg>
